<svg width="90" height="90" viewBox="0 0 90 90" fill="none" xmlns="http://www.w3.org/2000/svg">
<rect width="90" height="90" rx="12" fill="#08080A"/>
<path d="M44.6806 23C41.5628 23 38.6253 23.7572 36.0395 25.1089C35.9663 25.1425 35.9007 25.1905 35.8465 25.25C35.7924 25.3095 35.7508 25.3794 35.7244 25.4554C35.6979 25.5314 35.687 25.612 35.6925 25.6923C35.6979 25.7726 35.7196 25.851 35.7561 25.9227C35.7926 25.9945 35.8432 26.0581 35.9049 26.1098C35.9666 26.1615 36.0381 26.2001 36.1151 26.2235C36.1921 26.2468 36.2731 26.2544 36.3531 26.2457C36.4331 26.2369 36.5106 26.2121 36.5807 26.1727C39.0011 24.9075 41.7583 24.1944 44.6806 24.1944C47.6029 24.1944 50.36 24.9075 52.7804 26.1727C52.8506 26.2121 52.928 26.2369 53.008 26.2457C53.088 26.2544 53.169 26.2468 53.246 26.2235C53.323 26.2001 53.3946 26.1615 53.4563 26.1098C53.518 26.0581 53.5686 25.9945 53.6051 25.9227C53.6416 25.851 53.6632 25.7726 53.6686 25.6923C53.6741 25.612 53.6633 25.5314 53.6368 25.4554C53.6103 25.3794 53.5687 25.3095 53.5146 25.25C53.4604 25.1905 53.3948 25.1425 53.3216 25.1089C50.7359 23.7572 47.7984 23 44.6806 23ZM27.9583 24.1944C25.3267 24.1944 23.1806 26.3406 23.1806 28.9722C23.1806 30.2593 23.7868 31.3421 24.6176 32.201C21.3155 33.7181 19 37.2768 19 41.5139C19 41.6723 19.0629 41.8242 19.1749 41.9362C19.2869 42.0482 19.4388 42.1111 19.5972 42.1111H36.3195C36.4778 42.1111 36.6297 42.0482 36.7417 41.9362C36.8537 41.8242 36.9167 41.6723 36.9167 41.5139C36.9167 37.2768 34.6011 33.7181 31.2991 32.201C32.1299 31.3421 32.7361 30.2593 32.7361 28.9722C32.7361 26.3406 30.59 24.1944 27.9583 24.1944ZM61.4028 24.1944C58.7712 24.1944 56.625 26.3406 56.625 28.9722C56.625 30.2593 57.2313 31.3421 58.0621 32.201C54.76 33.7181 52.4445 37.2768 52.4445 41.5139C52.4445 41.6723 52.5074 41.8242 52.6194 41.9362C52.7314 42.0482 52.8833 42.1111 53.0417 42.1111H66.1806C66.2597 42.1122 66.3383 42.0976 66.4117 42.0681C66.4852 42.0386 66.552 41.9948 66.6084 41.9392C66.6647 41.8836 66.7095 41.8174 66.74 41.7444C66.7706 41.6714 66.7863 41.593 66.7863 41.5139C66.7863 41.4347 66.7706 41.3564 66.74 41.2834C66.7095 41.2104 66.6647 41.1441 66.6084 41.0886C66.552 41.033 66.4852 40.9892 66.4117 40.9597C66.3383 40.9302 66.2597 40.9155 66.1806 40.9167H53.7322C53.9583 37.0983 56.1532 33.9601 59.1632 32.9288C59.2667 32.8942 59.3587 32.832 59.4293 32.7489C59.4999 32.6657 59.5463 32.5648 59.5636 32.4571C59.5809 32.3494 59.5684 32.239 59.5275 32.1379C59.4865 32.0369 59.4186 31.9489 59.3312 31.8837C58.4236 31.2318 57.8195 30.1736 57.8195 28.9722C57.8195 26.9861 59.4167 25.3889 61.4028 25.3889C63.3889 25.3889 64.9861 26.9861 64.9861 28.9722C64.9861 30.1736 64.382 31.2318 63.4744 31.8837C63.387 31.9489 63.3191 32.0369 63.2782 32.1379C63.2372 32.239 63.2247 32.3494 63.242 32.4571C63.2593 32.5648 63.3057 32.6657 63.3763 32.7489C63.4469 32.832 63.5389 32.8942 63.6424 32.9288C66.8155 34.016 69.1667 37.4112 69.1667 41.5139C69.1656 41.593 69.1802 41.6716 69.2097 41.745C69.2392 41.8185 69.283 41.8853 69.3386 41.9417C69.3942 41.998 69.4604 42.0428 69.5334 42.0733C69.6064 42.1039 69.6848 42.1196 69.7639 42.1196C69.8431 42.1196 69.9214 42.1039 69.9944 42.0733C70.0675 42.0428 70.1337 41.998 70.1892 41.9417C70.2448 41.8853 70.2886 41.8185 70.3181 41.745C70.3476 41.6716 70.3623 41.593 70.3611 41.5139C70.3611 37.2768 68.0456 33.7181 64.7435 32.201C65.5743 31.3421 66.1806 30.2593 66.1806 28.9722C66.1806 26.3406 64.0344 24.1944 61.4028 24.1944ZM27.9583 25.3889C29.9444 25.3889 31.5417 26.9861 31.5417 28.9722C31.5417 30.1736 30.9375 31.2318 30.03 31.8837C29.9425 31.9489 29.8747 32.0369 29.8337 32.1379C29.7927 32.239 29.7802 32.3494 29.7975 32.4571C29.8148 32.5648 29.8613 32.6657 29.9319 32.7489C30.0025 32.832 30.0945 32.8942 30.1979 32.9288C33.2079 33.9601 35.4029 37.0983 35.6289 40.9167H20.2878C20.5138 37.0983 22.7087 33.9601 25.7188 32.9288C25.8222 32.8942 25.9142 32.832 25.9848 32.7489C26.0554 32.6657 26.1019 32.5648 26.1192 32.4571C26.1365 32.3494 26.124 32.239 26.083 32.1379C26.042 32.0369 25.9741 31.9489 25.8867 31.8837C24.9791 31.2318 24.375 30.1736 24.375 28.9722C24.375 26.9861 25.9722 25.3889 27.9583 25.3889ZM26.9505 45.0972C26.8658 45.1077 26.7843 45.1362 26.7116 45.1808C26.6388 45.2254 26.5765 45.2851 26.5287 45.3558C26.481 45.4266 26.4489 45.5067 26.4348 45.5909C26.4206 45.6751 26.4246 45.7613 26.4466 45.8438C27.5083 50.5289 30.3246 54.5362 34.1732 57.1536C34.2381 57.1978 34.3111 57.2287 34.388 57.2446C34.4649 57.2605 34.5442 57.2611 34.6213 57.2463C34.6984 57.2316 34.7719 57.2018 34.8375 57.1587C34.9031 57.1156 34.9596 57.06 35.0037 56.995C35.0478 56.9301 35.0787 56.8571 35.0946 56.7802C35.1105 56.7033 35.1111 56.624 35.0964 56.5469C35.0817 56.4698 35.0519 56.3963 35.0088 56.3307C34.9656 56.2651 34.91 56.2086 34.8451 56.1645C31.242 53.714 28.6159 49.9667 27.6224 45.5825C27.5955 45.4409 27.5184 45.3138 27.4052 45.2246C27.292 45.1355 27.1504 45.0902 27.0065 45.0972C26.9879 45.0963 26.9692 45.0963 26.9505 45.0972ZM62.28 45.0972C62.1489 45.1073 62.0249 45.1603 61.927 45.248C61.8292 45.3358 61.763 45.4533 61.7387 45.5825C60.7453 49.9667 58.1191 53.714 54.5161 56.1645C54.3849 56.2536 54.2945 56.3911 54.2648 56.5469C54.235 56.7026 54.2683 56.8638 54.3574 56.995C54.4465 57.1262 54.5841 57.2166 54.7398 57.2463C54.8956 57.2761 55.0568 57.2427 55.188 57.1536C59.0366 54.5362 61.8528 50.5289 62.9145 45.8438C62.9373 45.7555 62.9396 45.6632 62.9212 45.5739C62.9027 45.4846 62.8641 45.4007 62.8083 45.3286C62.7524 45.2566 62.6808 45.1982 62.599 45.1581C62.5171 45.118 62.4271 45.0972 62.336 45.0972C62.3173 45.0963 62.2986 45.0963 62.28 45.0972ZM44.6806 48.0833C42.049 48.0833 39.9028 50.2295 39.9028 52.8611C39.9028 54.1482 40.509 55.231 41.3399 56.0898C38.0378 57.607 35.7222 61.1657 35.7222 65.4028C35.7222 65.5612 35.7852 65.7131 35.8972 65.8251C36.0092 65.9371 36.1611 66 36.3195 66H53.0417C53.2001 66 53.352 65.9371 53.464 65.8251C53.576 65.7131 53.6389 65.5612 53.6389 65.4028C53.6389 61.1657 51.3234 57.607 48.0213 56.0898C48.8521 55.231 49.4584 54.1482 49.4584 52.8611C49.4584 50.2295 47.3122 48.0833 44.6806 48.0833ZM44.6806 49.2778C46.6667 49.2778 48.2639 50.875 48.2639 52.8611C48.2639 54.0625 47.6598 55.1207 46.7522 55.7726C46.6648 55.8378 46.5969 55.9258 46.5559 56.0268C46.5149 56.1279 46.5024 56.2383 46.5197 56.346C46.537 56.4537 46.5835 56.5546 46.6541 56.6377C46.7247 56.7209 46.8167 56.7831 46.9202 56.8177C49.9302 57.849 52.1251 60.9872 52.3511 64.8056H37.01C37.236 60.9872 39.431 57.849 42.441 56.8177C42.5444 56.7831 42.6364 56.7209 42.707 56.6377C42.7776 56.5546 42.8241 56.4537 42.8414 56.346C42.8587 56.2383 42.8462 56.1279 42.8052 56.0268C42.7642 55.9258 42.6964 55.8378 42.609 55.7726C41.7014 55.1207 41.0972 54.0625 41.0972 52.8611C41.0972 50.875 42.6945 49.2778 44.6806 49.2778Z" fill="white"/>
</svg>
