<svg width="90" height="90" viewBox="0 0 90 90" fill="none" xmlns="http://www.w3.org/2000/svg">
<rect width="90" height="90" rx="12" fill="#08080A"/>
<path fill-rule="evenodd" clip-rule="evenodd" d="M27.8836 59.9596H71.3515C71.7068 59.9596 72.0281 59.816 72.2568 59.5848C72.4856 59.356 72.6316 59.0348 72.6316 58.6795V53.9776L26.6037 53.9801V58.6819C26.6037 59.0372 26.7473 59.3585 26.9785 59.5872C27.2073 59.816 27.5285 59.962 27.8838 59.962L27.8836 59.9596ZM25.2139 32.6322V58.6749C25.2139 59.4099 25.5157 60.0791 25.9951 60.5561C26.4794 61.0404 27.1438 61.3373 27.8763 61.3373H45.2479L25.9269 66.5697C25.5861 66.6621 25.2381 66.6086 24.9485 66.4456C24.6589 66.2825 24.4448 66.0124 24.3523 65.6716L16.4256 36.3512C16.3332 36.0105 16.3867 35.6625 16.5498 35.3729C16.7128 35.0906 16.983 34.8691 17.3237 34.7766L25.2185 32.6399L25.2139 32.6322ZM50.5408 61.3445L26.2892 67.908C25.581 68.0979 24.8606 67.9859 24.2693 67.6452C23.6779 67.3045 23.2131 66.7399 23.0232 66.0244L15.1016 36.745C15.1016 36.745 15.0894 36.6915 15.0821 36.6672C14.9044 35.9711 15.0237 35.2702 15.3571 34.6862C15.6905 34.1094 16.2357 33.6494 16.9244 33.4523C16.9511 33.445 16.9779 33.4328 17.0022 33.4328L25.2205 31.2085V28.3026C25.2205 27.5677 25.5222 26.8984 26.0017 26.4214C26.486 25.9371 27.1504 25.6402 27.8829 25.6402H45.8071L58.9222 22.092C59.6304 21.9021 60.3508 22.0141 60.9421 22.3548C61.5335 22.6955 61.9983 23.2601 62.1882 23.9756L62.6408 25.6476H71.3506C72.0856 25.6476 72.7548 25.9494 73.2318 26.4288C73.7112 26.9082 74.013 27.5775 74.013 28.31V58.687C74.013 59.422 73.7112 60.0913 73.2318 60.5682C72.7524 61.0477 72.0831 61.3494 71.3506 61.3494H50.5474L50.5408 61.3445ZM61.2099 25.6282L60.8546 24.3092C60.7621 23.9685 60.5407 23.6983 60.2584 23.5353C59.9688 23.3722 59.6232 23.3114 59.2801 23.4112L51.0955 25.6282H61.2145L61.2099 25.6282ZM68.883 49.5658C69.2627 49.5658 69.5718 49.2567 69.5718 48.877C69.5718 48.4974 69.2627 48.1883 68.883 48.1883C68.5033 48.1883 68.1943 48.4974 68.1943 48.877C68.1943 49.2567 68.5033 49.5658 68.883 49.5658ZM65.4005 49.5658C65.7801 49.5658 66.0892 49.2567 66.0892 48.877C66.0892 48.4974 65.7801 48.1883 65.4005 48.1883C65.0208 48.1883 64.7117 48.4974 64.7117 48.877C64.7117 49.2567 65.0208 49.5658 65.4005 49.5658ZM61.9179 49.5658C62.2976 49.5658 62.6067 49.2567 62.6067 48.877C62.6067 48.4974 62.2976 48.1883 61.9179 48.1883C61.5383 48.1883 61.2292 48.4974 61.2292 48.877C61.2292 49.2567 61.5383 49.5658 61.9179 49.5658ZM31.035 35.8326H38.662V31.0967H31.035V35.8326ZM38.7348 37.2174C39.095 37.2174 39.4236 37.0738 39.6597 36.8305C39.8957 36.5871 40.0466 36.261 40.0466 35.9056V31.0335C40.0466 30.6733 39.8957 30.3447 39.6597 30.1087C39.4236 29.8653 39.095 29.7217 38.7348 29.7217H30.9689C30.6088 29.7217 30.2802 29.8726 30.0441 30.1087C29.8081 30.352 29.6572 30.6781 29.6572 31.0335V35.9056C29.6572 36.2658 29.8081 36.5944 30.0441 36.8305C30.2802 37.0738 30.6087 37.2174 30.9689 37.2174H38.7348ZM43.7068 32.6081H62.8503C63.2299 32.6081 63.539 32.299 63.539 31.9193C63.539 31.5397 63.2299 31.2306 62.8503 31.2306H43.7068C43.3272 31.2306 43.0181 31.5397 43.0181 31.9193C43.0181 32.299 43.3272 32.6081 43.7068 32.6081ZM43.7068 36.3583H55.4202C55.7998 36.3583 56.1089 36.0493 56.1089 35.6696C56.1089 35.2899 55.7999 34.9808 55.4202 34.9808H43.7068C43.3272 34.9808 43.0181 35.2899 43.0181 35.6696C43.0181 36.0493 43.3272 36.3583 43.7068 36.3583ZM72.6335 52.5885L72.6359 28.2984C72.6359 27.943 72.4924 27.6218 72.2612 27.3931C72.0324 27.1643 71.7112 27.0183 71.3559 27.0183L27.8836 27.0207C27.5283 27.0207 27.2071 27.1643 26.9783 27.3955C26.7495 27.6243 26.6035 27.9455 26.6035 28.3008V52.5985H72.6339L72.6335 52.5885Z" fill="white"/>
</svg>
