<svg width="90" height="90" viewBox="0 0 90 90" fill="none" xmlns="http://www.w3.org/2000/svg">
<rect width="90" height="90" rx="12" fill="#08080A"/>
<path d="M48.3441 41.0591H50.4946C50.4946 38.7473 48.5914 36.8118 46.0753 36.3763V34.8925H43.9247V36.3978C41.4086 36.8333 39.5054 38.7688 39.5054 41.0806C39.5054 43.3925 41.4086 45.3279 43.9247 45.7688V50.9677C42.6075 50.6183 41.6559 49.6398 41.6559 48.4839H39.5054C39.5054 50.8011 41.4086 52.7312 43.9247 53.1667V55.1075H46.0753V53.1452C48.5914 52.7097 50.4946 50.7796 50.4946 48.4624C50.4946 46.1452 48.5914 44.215 46.0753 43.7796V38.5753C47.3925 38.9301 48.3441 39.9086 48.3441 41.0591ZM41.6559 41.0591C41.6559 39.9086 42.6075 38.9086 43.9247 38.5753V43.543C42.6075 43.1935 41.6559 42.215 41.6559 41.0591ZM48.3441 48.4624C48.3441 49.6183 47.3925 50.6129 46.0753 50.9462V45.9785C47.3925 46.3333 48.3441 47.3118 48.3441 48.4624ZM45 59.3602V61.5107C40.6224 61.5065 36.4253 59.7656 33.3299 56.6701C30.2344 53.5747 28.4935 49.3776 28.4893 45H30.6398C30.6441 48.8072 32.1584 52.4573 34.8505 55.1495C37.5427 57.8416 41.1927 59.3559 45 59.3602ZM61.5108 45H59.3602C59.3559 41.1927 57.8416 37.5426 55.1495 34.8505C52.4574 32.1584 48.8073 30.6441 45 30.6398V28.4892C49.3776 28.4935 53.5747 30.2344 56.6701 33.3298C59.7656 36.4253 61.5065 40.6224 61.5108 45ZM45 23C40.6488 23 36.3953 24.2903 32.7775 26.7077C29.1596 29.1251 26.3398 32.561 24.6747 36.581C23.0095 40.6009 22.5739 45.0244 23.4227 49.292C24.2716 53.5596 26.3669 57.4796 29.4437 60.5563C32.5204 63.6331 36.4404 65.7284 40.708 66.5773C44.9756 67.4261 49.3991 66.9905 53.419 65.3253C57.439 63.6602 60.8749 60.8404 63.2923 57.2225C65.7097 53.6047 67 49.3512 67 45C66.9886 39.1687 64.6671 33.5795 60.5438 29.4562C56.4205 25.3329 50.8313 23.0114 45 23ZM45 64.8494C41.0742 64.8494 37.2365 63.6853 33.9722 61.5042C30.708 59.3231 28.1639 56.2231 26.6615 52.5961C25.1591 48.969 24.7661 44.978 25.5319 41.1276C26.2978 37.2771 28.1883 33.7403 30.9643 30.9643C33.7403 28.1883 37.2771 26.2978 41.1276 25.5319C44.978 24.766 48.969 25.1591 52.5961 26.6615C56.2231 28.1638 59.3231 30.708 61.5042 33.9722C63.6853 37.2365 64.8495 41.0741 64.8495 45C64.8381 50.2609 62.7432 55.3031 59.0231 59.0231C55.3031 62.7432 50.2609 64.8381 45 64.8494Z" fill="white" stroke="#08080A"/>
</svg>
