<svg width="37" height="36" viewBox="0 0 37 36" fill="none" xmlns="http://www.w3.org/2000/svg">
<path d="M36.2222 18.1087C36.221 8.10749 28.1135 0 18.1111 0C8.10869 0 0 8.1087 0 18.1111C0 27.1147 6.57005 34.5833 15.1763 35.9855L15.2802 36V23.3454H10.6812V18.1087H15.2802V14.1208C15.2572 13.9191 15.2452 13.6848 15.2452 13.4481C15.2452 9.91788 18.1075 7.05556 21.6377 7.05556C21.808 7.05556 21.977 7.0628 22.1449 7.07488L22.1232 7.07367C23.5713 7.0942 24.9722 7.22222 26.3394 7.45048L26.1775 7.42754V11.8841H23.8925C23.7886 11.8696 23.6691 11.8611 23.5483 11.8611C22.1027 11.8611 20.9299 13.0326 20.9299 14.4795C20.9299 14.5616 20.9336 14.6425 20.9408 14.7234L20.9396 14.7126V18.1087H25.9626L25.1594 23.3454H20.9396V36C29.651 34.5821 36.221 27.1123 36.2222 18.1087Z" fill="white"/>
</svg>
