<svg width="37" height="36" viewBox="0 0 37 36" fill="none" xmlns="http://www.w3.org/2000/svg">
<path d="M19.4412 0.0366211C28.5752 0.0366211 36.0485 7.50988 36.0485 16.6439V19.2386C36.0485 28.3726 28.5752 35.8458 19.4412 35.8458H16.8465C7.71251 35.8458 0.239258 28.3726 0.239258 19.2386V16.6439C0.239258 7.50988 7.71251 0.0366211 16.8465 0.0366211H19.4412ZM18.4703 9.03692L18.2393 9.03662C16.3152 9.03662 14.3912 9.10022 14.3912 9.10022C11.581 9.10022 9.30285 11.3784 9.30285 14.1886C9.30285 14.1886 9.24445 15.8407 9.23958 17.614L9.23926 17.8458C9.23926 19.8313 9.30285 21.8847 9.30285 21.8847C9.30285 24.6949 11.581 26.973 14.3912 26.973C14.3912 26.973 16.1901 27.0366 18.0485 27.0366C20.0339 27.0366 22.1509 26.973 22.1509 26.973C24.9611 26.973 27.1757 24.7585 27.1757 21.9483C27.1757 21.9483 27.2393 19.918 27.2393 17.973L27.2381 17.5166C27.2295 15.7715 27.1756 14.1249 27.1756 14.1249C27.1756 11.3147 24.9611 9.10022 22.1509 9.10022C22.1509 9.10022 20.3191 9.04161 18.4703 9.03692ZM18.2393 10.6566C19.817 10.6566 21.8399 10.7088 21.8399 10.7088C24.1443 10.7088 25.5671 12.1315 25.5671 14.4359C25.5671 14.4359 25.6193 16.4243 25.6193 17.9844C25.6193 19.5793 25.5671 21.6372 25.5671 21.6372C25.5671 23.9416 24.1443 25.3644 21.8399 25.3644C21.8399 25.3644 20.0509 25.4082 18.4987 25.4155L18.0828 25.4165C16.559 25.4165 14.7022 25.3644 14.7022 25.3644C12.3979 25.3644 10.9114 23.8779 10.9114 21.5736C10.9114 21.5736 10.8593 19.5082 10.8593 17.8801C10.8593 16.3563 10.9114 14.4359 10.9114 14.4359C10.9114 12.1315 12.3979 10.7088 14.7022 10.7088C14.7022 10.7088 16.6615 10.6566 18.2393 10.6566ZM18.2392 13.4263C15.693 13.4263 13.6289 15.4904 13.6289 18.0366C13.6289 20.5828 15.693 22.6469 18.2392 22.6469C20.7854 22.6469 22.8495 20.5828 22.8495 18.0366C22.8495 15.4904 20.7854 13.4263 18.2392 13.4263ZM18.2392 15.0366C19.8961 15.0366 21.2392 16.3797 21.2392 18.0366C21.2392 19.6934 19.8961 21.0366 18.2392 21.0366C16.5824 21.0366 15.2392 19.6934 15.2392 18.0366C15.2392 16.3797 16.5823 15.0366 18.2392 15.0366ZM23.0701 12.1469C22.4549 12.1469 21.9561 12.6481 21.9561 13.2664C21.9561 13.8846 22.4549 14.3858 23.0701 14.3858C23.6853 14.3858 24.1841 13.8846 24.1841 13.2664C24.1841 12.6481 23.6853 12.1469 23.0701 12.1469Z" fill="white"/>
</svg>
