<svg width="30" height="30" viewBox="0 0 30 30" fill="none" xmlns="http://www.w3.org/2000/svg">
<circle cx="15" cy="15" r="15" fill="white"/>
<path d="M14.5312 8C11.4764 8 9 10.4764 9 13.5312C9 14.8399 9.57663 15.9906 10.2148 16.9883L14.1551 22.5555C14.2416 22.6776 14.3819 22.75 14.5312 22.75C14.6806 22.75 14.8209 22.6776 14.9074 22.5555L18.8477 16.9883C19.4575 16.1674 20.0625 14.8399 20.0625 13.5312C20.0625 10.4764 17.5861 8 14.5312 8ZM18.2388 16.9883H18.2365L14.5312 22.0586L10.826 16.9883H10.8237C10.2604 16.1745 9.46094 14.8677 9.46094 13.5312C9.46094 10.7311 11.7311 8.46094 14.5312 8.46094C17.3314 8.46094 19.6016 10.7311 19.6016 13.5312C19.6016 14.8677 18.7444 16.2464 18.2388 16.9883Z" fill="#08080A" stroke="#08080A" stroke-width="0.5"/>
<path d="M14.5312 11.2266C13.2584 11.2266 12.2266 12.2586 12.2266 13.5312C12.2266 14.8039 13.2584 15.8359 14.5312 15.8359C15.8041 15.8359 16.8359 14.8039 16.8359 13.5312C16.8359 12.2586 15.8041 11.2266 14.5312 11.2266ZM14.5312 15.375C13.513 15.375 12.6875 14.5495 12.6875 13.5312C12.6875 12.513 13.513 11.6875 14.5312 11.6875C15.5495 11.6875 16.375 12.513 16.375 13.5312C16.375 14.5495 15.5495 15.375 14.5312 15.375Z" fill="#08080A" stroke="#08080A" stroke-width="0.5"/>
<path d="M14.5312 10.3047C12.7493 10.3047 11.3047 11.7493 11.3047 13.5312C11.3047 15.3132 12.7493 16.7578 14.5312 16.7578C16.3132 16.7578 17.7578 15.3132 17.7578 13.5312C17.7578 11.7493 16.3132 10.3047 14.5312 10.3047ZM14.5312 16.2969C13.0039 16.2969 11.7656 15.0586 11.7656 13.5312C11.7656 12.0039 13.0039 10.7656 14.5312 10.7656C16.0586 10.7656 17.2969 12.0039 17.2969 13.5312C17.2969 15.0586 16.0586 16.2969 14.5312 16.2969Z" fill="#08080A" stroke="#08080A" stroke-width="0.5"/>
</svg>
