<svg width="130" height="57" viewBox="0 0 130 57" fill="none" xmlns="http://www.w3.org/2000/svg">
<path fill-rule="evenodd" clip-rule="evenodd" d="M17.0509 0.282567C17.1715 0.429746 16.9839 0.683515 16.3324 1.2949C13.5403 3.91613 4.67492 9.90719 2.57331 23.3777C0.421545 37.1644 7.58553 43.8907 14.9004 45.103C27.3418 47.1634 39.0266 35.1991 41.2317 24.3967C43.2883 14.3191 41.9334 7.36035 32.1012 4.65093C16.6755 0.400932 0.900978 25.0995 8.22793 31.2079C8.96678 30.8939 11.6357 30.3482 11.0148 32.8572C10.4975 34.9488 7.63005 33.5022 7.20605 33.1421C-0.43067 26.8882 12.9891 -2.22842 32.7494 2.2437C41.9625 4.32924 47.2472 12.8234 44.2253 24.9858C41.3886 36.4042 28.6636 50.4101 13.3842 47.3653C4.91365 45.6775 -2.07496 38.4743 0.566492 23.2059C3.02185 9.01279 11.6063 2.91724 15.6027 0.242077C16.0895 -0.0839629 16.7444 -0.0905062 17.0509 0.282567ZM119.77 22.4025C120.617 18.6714 118.467 15.9604 117.073 15.6878C113.694 15.0279 111.207 17.9912 110.186 22.0067C109.605 24.2885 109.16 27.8975 111.573 31.0866C116.149 31.0039 118.924 26.1248 119.77 22.4025ZM59.9058 44.0843C40.1502 46.977 21.4092 51.1519 11.2107 54.1327C9.82689 54.3754 9.22428 51.9575 11.3522 51.2624C25.9296 47.8799 43.4701 44.2348 60.0779 41.4948C60.2857 39.2732 60.6001 37.0627 61.0202 34.871C60.4365 35.6539 58.504 37.9072 56.7774 37.5415C55.8747 37.3502 55.2045 35.8457 55.038 34.486C54.4465 35.3568 52.5364 38.9415 50.6589 38.5884C49.4692 38.365 48.9483 37.4011 48.7855 36.8273C48.4864 35.7704 48.9715 32.5937 49.458 29.7295C48.8215 30.3744 48.0376 30.5783 47.3934 30.5376C47.0645 31.1916 45.3947 32.834 45.1999 33.6996C45.1086 34.1076 43.0824 35.7272 42.5773 35.9934C42.0032 36.2954 41.594 35.9591 41.9594 35.023C43.1265 34.3139 44.5848 32.9052 46.0602 30.1563C44.799 29.4991 44.7246 26.4525 45.2972 25.2131C45.5784 24.3083 46.6334 20.4641 49.6587 20.9498C51.4719 21.241 49.9327 26.2928 49.0942 27.7907C49.611 27.7813 50.8089 27.2398 51.7408 26.2618C52.5285 25.4344 53.615 26.9125 52.7932 28.4983C52.4058 29.2462 52.1278 29.6924 51.7777 30.0946C51.33 30.6094 49.9006 36.1059 51.1325 36.3133C52.4399 36.5328 54.5421 33.3189 55.0984 32.4599C55.5272 30.414 56.0242 28.8843 56.5012 27.4701C56.6938 26.738 57.3209 26.3375 57.8514 26.3995C58.3737 26.4605 59.0578 26.6477 58.9079 27.3438C58.5418 29.0351 57.5536 32.595 57.416 34.2271C57.3513 34.9955 57.6617 35.37 58.0937 35.4931C59.0236 35.7577 60.8952 33.4391 61.5404 32.3992C61.2309 31.7882 60.1554 29.1483 62.0175 28.0403C62.394 26.8234 62.4454 26.3043 63.3565 19.4795C63.5 18.4047 65.0476 11.1141 67.0268 11.619C68.5098 11.9971 66.7824 16.0797 66.4076 17.6146C66.0405 19.1143 64.3877 24.0966 63.8432 29.1955C64.6951 29.9664 67.3148 28.3164 68.6095 27.332C68.6067 27.0961 68.6086 26.8601 68.6154 26.6242C68.9252 15.1933 73.1545 4.43634 77.5461 5.04216C82.4802 5.72271 78.8386 15.6525 78.5792 16.3347C76.4863 21.843 74.5223 23.479 70.7608 27.9664C70.7676 30.0473 71.321 35.1337 74.284 35.6309C75.9991 35.918 76.8987 35.0745 77.633 34.2879C77.0277 33.4961 76.6662 32.4449 76.5469 31.1389C76.4117 29.6598 76.1923 27.8714 76.6428 25.9969C77.1083 24.0608 79.1199 17.9407 83.5382 18.8334C84.3274 18.9927 85.1438 19.303 85.5051 20.3056C85.5193 20.3486 85.9879 21.1524 85.3324 22.0543C85.091 22.283 84.3751 22.3871 84.2318 22.0454C83.5488 20.7611 83.2697 20.5772 82.6573 20.4956C81.1339 20.2934 78.9809 23.1068 78.4084 26.2323C78.1191 27.8069 77.732 33.3744 81.3385 34.1443C84.438 34.8049 84.9896 30.0707 85.1279 28.7864C85.4498 25.819 85.1438 21.8043 86.4632 22.0553C87.8991 21.3318 87.0407 25.2099 86.9435 26.4024C86.9041 26.8721 86.9904 30.7395 89.3903 30.9649C90.1933 31.0402 90.7248 30.675 91.4934 28.1695C91.1623 26.2945 91.071 24.1021 91.2445 22.1842C91.3157 21.4025 91.4557 19.2145 92.8195 19.572C93.1758 19.6658 93.3166 19.9709 93.2764 20.291C93.0576 22.055 92.7483 24.6461 94.2563 26.2742C94.4138 25.8765 95.0878 21.5398 95.5455 20.3367C96.0048 19.1292 97.1306 18.4279 97.6545 18.3818C98.486 18.3086 99.7174 18.8899 99.4357 20.2913C99.3418 20.7597 99.1122 25.5313 99.7023 26.0455C100.657 26.8775 100.744 23.7206 101.461 21.0556C101.714 19.8989 102.653 18.3875 103.805 18.4656C104.494 18.5122 105.397 19.23 105.209 20.1232C104.91 21.5427 104.645 24.0099 104.904 26.0205C105.249 28.6756 107.359 30.6232 108.412 30.9101C108.755 31.0037 109.096 31.0264 109.453 31.0244C107.598 28.0697 107.185 24.1631 107.875 21.4761C108.733 18.1342 112.206 11.5966 118.911 13.2003C121.845 13.8879 122.677 19.306 121.624 22.5123C120.27 27.1289 117 32.1235 113.001 32.7783C113.816 33.6806 114.94 35.0662 117.767 35.5026C123.326 36.3607 125.051 33.6844 127.397 32.0133C128.066 31.5377 128.764 31.795 128.924 31.9471C129.115 32.1289 129.284 32.7117 128.549 33.4779C127.694 34.3677 124.222 38.4248 117.635 37.1635C114.771 36.6132 112.532 35.0987 110.902 33.1433C105.833 32.5819 103.912 30.969 103.069 25.3574C102.971 24.5883 103.053 23.7712 103.157 23.0051C103.172 22.8983 103.317 22.4948 102.849 22.4354C102.505 22.392 102.004 23.1004 101.535 25.153C100.945 27.7395 101.297 31.2854 99.1155 31.0265C97.8422 30.8753 97.8498 29.4306 97.7492 29.1909C96.9219 27.2193 98.0811 21.7348 96.947 21.7082C95.973 21.6853 95.5882 24.5439 95.2521 26.4083C94.9822 27.9173 95.6687 32.3737 94.1657 32.559C93.1615 32.6821 92.392 31.5439 91.8824 29.8405C91.4507 31.4835 90.6879 33.5292 89.143 33.3282C87.3199 33.0906 86.9074 31.9911 86.3844 30.8603C86.309 32.8232 84.7808 37.4283 80.6383 36.5996C79.8749 36.4467 79.2667 36.0005 78.7389 35.4923C77.305 37.2596 75.8142 38.2235 73.5141 37.9073C70.0656 37.4334 68.9765 32.7613 68.6944 29.286C67.1802 30.2634 64.8644 31.2455 64.2678 31.0249C66.1954 33.8093 68.2608 36.7423 69.569 40.0182C85.1078 37.7547 99.077 36.5467 107.971 37.4478C110.404 37.84 109.823 40.7494 106.879 40.9422C96.2613 40.33 83.4131 41.1411 70.4303 42.6846C71.0071 45.0392 71.1262 47.5765 70.5094 50.3561C69.5851 54.514 68.5219 57.201 65.6502 56.9882C60.6912 56.6226 59.6519 50.3744 59.9058 44.0843ZM68.6089 42.9059C66.2995 43.1922 63.9928 43.4993 61.689 43.8272C61.4268 49.5795 62.1989 55.1972 65.4184 55.2863C68.4545 55.3697 69.2004 48.4715 69.0408 45.893C68.9821 44.8869 68.8377 43.8876 68.6089 42.9059ZM61.8766 41.2018C63.8353 40.8853 65.7958 40.58 67.7579 40.2859C66.6214 37.5639 64.9178 35.4415 63.3322 33.216C62.755 35.0053 62.1848 37.9932 61.8766 41.2018ZM47.4965 27.5869C47.018 27.8106 46.4006 26.9678 46.6463 25.6725C46.8456 24.6254 47.5492 23.4776 48.6728 23.9885C49.1631 24.2111 48.0695 27.3188 47.4965 27.5869ZM76.5421 16.1896C76.9875 13.7786 78.6158 9.57735 76.7615 8.22166C73.7928 6.04899 70.2471 22.3918 70.6107 25.3399C73.3634 22.4466 76.1396 18.3704 76.5421 16.1896ZM59.3811 19.86C60.1615 20.0778 60.5596 21.1342 60.2672 22.2116C59.9748 23.2889 59.1013 23.9898 58.3211 23.7713C57.5414 23.5535 57.1426 22.4971 57.435 21.4197C57.7275 20.3424 58.6009 19.6415 59.3811 19.86Z" fill="#5E4C45"/>
</svg>
