<svg width="197" height="48" viewBox="0 0 197 48" fill="none" xmlns="http://www.w3.org/2000/svg">
<path d="M156.236 9.61477H159.508V37.2328H156.236V9.61477ZM102.931 9.61477H99.6611V37.2328H119.047V33.9285H102.931V9.61477ZM66.8125 37.2328H92.2706V33.9285H70.0822V25.0769H90.9866V21.7719H70.0822V12.9197H92.2706V9.61477H66.8125V37.2328ZM118.866 23.4244C118.866 31.0592 126.001 37.2481 134.803 37.2481L148.174 37.2334V23.1292H144.905V33.9395H134.803C127.826 33.9395 122.169 29.2313 122.169 23.4238C122.169 17.6163 127.826 12.9081 134.803 12.9081H148.174V9.61416L134.803 9.6001C126.001 9.60071 118.866 15.7902 118.866 23.4244ZM193.73 34.6361L173.645 9.61477H168.038V37.2328H171.309V11.9169L191.629 37.2328H197.001V9.61477H193.73V34.6361Z" fill="#5E4C45"/>
<path d="M29.642 46.9998C18.9684 46.9998 10.2588 37.2705 9.78003 25.0606L33.5085 24.2941V23.5875L9.78735 22.7625C10.343 10.6362 19.0196 1.00015 29.642 1.00015C38.3357 1.00015 45.7259 7.45385 48.428 16.4461L51.8883 16.4632C48.8038 6.90038 40.0094 0 29.642 0C17.13 0 6.90836 10.0516 6.25083 22.7027L0 22.4677V25.4139L6.24473 25.1796C6.84553 37.8868 17.091 48 29.642 48C40.0479 48 48.8684 41.0484 51.9225 31.4313L48.4646 31.4307C45.7936 40.487 38.3754 46.9998 29.642 46.9998Z" fill="#5E4C45"/>
</svg>
