<svg width="206" height="45" viewBox="0 0 206 45" fill="none" xmlns="http://www.w3.org/2000/svg">
<path fill-rule="evenodd" clip-rule="evenodd" d="M203.855 28.368C201.916 27.4194 202.347 25.1609 202.49 23.4105C203.423 20.1313 203.855 16.5594 204.574 13.2056C204.574 12.1847 205.291 11.0939 204.788 10.1442C201.269 9.05109 197.605 9.56151 194.157 9.85284C193.366 9.99852 192.647 10.0719 191.93 10.2176C188.626 10.9459 185.395 12.4772 183.24 15.3196C180.941 18.3798 178.499 22.1718 179.72 26.1072C180.294 27.6362 181.444 29.1685 182.809 29.9692C185.827 31.3547 189.058 30.5542 191.93 29.1674C192.721 28.7303 193.438 28.2934 194.229 27.8541C195.019 27.3437 195.666 26.543 196.673 26.4697C197.677 27.2713 196.673 28.9484 197.533 29.8224C199.473 30.3328 201.484 29.75 203.352 29.9679C204.284 29.8224 205.218 29.8957 205.865 29.4575C206.011 28.2958 204.502 28.8049 203.855 28.368ZM198.684 19.256C197.964 21.9515 196.098 23.9198 194.229 25.5245C193.511 26.1072 192.722 26.7622 191.93 27.2726C190.278 28.2188 188.412 28.7316 186.544 27.7095C185.036 26.9077 184.174 25.0875 184.461 23.1915C184.964 20.1313 186.471 16.9952 188.7 14.7368C189.418 13.9351 190.638 12.9142 191.93 12.1847C192.626 11.7999 193.378 11.5297 194.157 11.3841C195.45 11.2373 197.174 11.3107 198.323 12.2581C200.192 13.7894 199.331 17.1422 198.684 19.256ZM177.063 8.24932C176.345 6.42671 173.614 8.10364 172.178 8.83199C169.736 9.92626 167.652 11.3107 165.641 13.1333C164.922 13.7882 163.989 15.2461 163.054 14.8814C162.049 14.5166 162.911 12.9853 162.911 11.8922C162.911 10.7991 163.558 9.12333 162.911 8.17473L162.193 7.2273C161.618 6.42554 160.254 6.86371 159.607 7.15504C153.358 9.63259 147.97 13.9339 144.234 19.1815C142.796 21.2954 141.29 23.4817 140.14 25.7401C139.722 26.5384 139.362 27.3668 139.063 28.2188C138.92 28.876 138.489 29.4588 138.92 30.0414C138.992 30.2617 139.495 30.2617 140.14 30.2617C140.643 30.1871 141.217 30.1136 141.433 30.0414C142.727 29.6778 142.296 27.9998 142.87 26.9801C143.803 25.3777 144.306 23.4817 145.313 21.8047C147.179 18.6699 149.119 15.245 152.209 13.3489C153.501 12.4749 154.652 12.0379 156.303 11.891C156.805 11.891 157.595 12.2558 157.81 12.7663C158.6 14.7346 157.452 16.9208 157.02 18.8167C156.373 21.44 154.864 23.2625 154.147 25.739C153.787 27.0523 152.351 28.3656 152.998 29.6767C153.5 30.7697 155.727 30.6986 156.588 29.8224C158.239 27.9263 158.671 25.1586 159.965 22.9712C162.046 19.5451 164.131 15.9733 167.793 13.7871C169.159 13.0575 171.458 11.7454 172.463 13.3489C173.54 14.9536 172.607 17.2855 172.391 19.0346C171.745 22.3862 169.877 25.6679 169.519 29.531C169.447 30.1859 170.379 30.2617 170.883 30.3328C171.673 30.3328 172.895 30.9154 173.327 29.8224C174.259 27.4893 174.762 25.0129 175.481 22.462C176.703 17.9438 178.858 12.5495 177.063 8.24932ZM141.505 12.0402C141.505 9.92626 141.146 7.95798 140.14 6.42671C139.925 6.13537 139.709 5.91744 139.565 5.62494C136.549 2.4179 131.594 2.56356 127.426 3.51216C126.708 3.73007 125.989 3.87575 125.343 4.09483C124.018 4.5159 122.723 5.0271 121.465 5.62494C116.077 8.39499 111.623 12.9142 109.683 18.6723C108.751 21.4423 108.607 23.9932 109.325 26.909C110.115 29.6789 112.916 31.8664 115.144 32.449C118.518 33.3953 122.039 32.9594 125.343 31.9386C126.349 31.5727 127.356 31.2103 128.36 30.771C131.666 29.3142 134.322 26.6176 136.55 24.1389C137.987 22.3886 139.207 20.4949 140.141 18.3809C140.93 16.4137 141.433 14.2999 141.505 12.0402ZM136.404 12.6229C135.686 16.7773 133.963 20.5682 131.519 24.1389C129.868 26.4719 127.786 28.5859 125.342 29.9703C123.763 30.8467 121.968 31.4271 120.098 31.4271C116.651 31.5016 114.065 28.1477 114.065 24.8696C114.137 20.0578 116.291 15.3929 118.806 11.4564C120.46 8.90541 122.685 6.86488 125.342 5.3336C125.774 5.11452 126.205 4.89544 126.707 4.60527C129.077 3.43874 132.597 3.43874 134.608 5.47928C136.333 7.30189 136.837 10.2176 136.404 12.6229ZM104.222 6.71804C103.577 6.28103 102.788 6.35445 102.068 6.13537C99.2669 6.13537 96.8276 7.37414 94.6008 8.90541C94.3126 9.12449 94.0255 9.27016 93.8096 9.48808C92.5887 10.4355 91.5115 11.5298 90.6502 12.4038L90.0748 12.6229C89.8589 12.3304 89.7154 12.2581 89.7877 11.8934C89.9312 10.3633 90.5778 8.39499 89.6442 7.01055C89.4283 6.79146 89.0688 6.86487 88.9253 6.57237L87.2727 6.35446C83.6838 6.42671 80.4509 6.64579 76.9297 6.86487C76.7862 6.93713 76.7139 6.93713 76.6426 7.01055C76.3544 7.0828 76.1396 7.15621 76.1396 7.44756C76.2109 7.73889 76.4268 7.8123 76.6426 7.88456C76.8574 7.95798 77.2168 7.88456 77.4316 7.88456C79.3713 7.88456 81.1664 7.95798 82.8201 8.61407C83.7538 8.97766 84.6163 9.92626 84.6163 10.9459C84.6163 12.3304 84.6163 13.8628 84.1844 15.1739C84.0409 17.2155 83.036 19.037 82.8201 21.2966C81.6705 23.4106 81.3122 26.1072 80.5944 28.368L80.521 28.2958C80.1626 30.1895 79.4449 31.9397 79.0141 33.7601C78.727 35.3648 77.9358 36.5324 77.7211 38.1348C77.6487 38.4984 77.0744 38.9366 77.2892 39.5192C78.5112 39.8852 80.0191 39.6649 81.3122 39.8852C81.8865 39.5938 81.8153 38.7909 82.03 38.1348C82.2459 37.2584 82.533 36.3844 82.7489 35.5104C83.3943 33.7601 83.1796 31.2814 85.2617 30.701C87.0579 30.335 88.9253 30.7721 90.5054 30.5553C91.6551 30.5553 92.7311 30.2639 93.8096 30.1895C93.9542 30.1895 94.0978 30.1171 94.2413 30.1171C98.478 29.1709 102.429 25.8881 104.366 22.0273C105.804 20.1324 106.593 17.7259 107.096 15.2485C107.528 13.4981 107.743 10.8014 106.954 9.19791C106.307 8.10364 105.516 6.86487 104.222 6.71804ZM100.273 20.4226C99.7699 21.6602 98.981 22.5354 98.3356 23.8476C97.3296 25.6702 95.6781 27.1269 93.8096 28.0744C92.0857 28.8773 90.2183 29.242 88.351 29.0963C87.2726 29.0241 85.6212 29.3155 85.3341 28.368C84.7599 25.8869 86.5549 23.484 87.6332 21.151C89.2847 17.9438 91.0073 14.4455 93.8096 11.9668C94.7443 11.165 95.8216 10.5089 97.0424 9.92626C98.0485 9.48808 99.7699 8.90541 100.704 9.92626L101.423 10.6546C103.65 13.1333 101.493 17.5791 100.273 20.4226Z" fill="#5E4C45"/>
<path fill-rule="evenodd" clip-rule="evenodd" d="M75.8509 17.6518C75.9221 16.4853 76.2816 15.3921 76.641 14.2991C76.9281 13.2794 77.1429 12.2573 77.1429 11.0932C76.9993 10.8007 76.8558 10.655 76.641 10.5816C76.2092 10.4359 75.7786 10.4359 75.4915 10.218C71.4685 10.2902 67.4466 9.63415 63.4236 10.655C63.0642 10.8007 62.7059 10.8741 62.4176 10.9463C60.6215 11.3111 58.8976 12.3308 57.2461 13.4251C53.7974 15.5378 51.3546 19.4744 50.4933 23.3375C50.0627 25.8874 50.7804 28.5862 53.222 29.8973C55.8083 32.0089 59.6154 30.7713 62.4164 29.8251C62.7047 29.8251 63.063 29.6794 63.4225 29.5337C65.0028 28.8787 66.5106 27.2741 68.3068 26.618C69.3841 27.3464 68.1632 28.5862 68.7374 29.6059C69.4553 30.4799 70.8207 30.3343 71.898 30.2633C73.4071 30.1887 74.7714 30.1887 76.2804 30.1887C76.3517 30.1887 76.4941 30.1163 76.6399 29.9695C76.7111 29.8973 76.7111 29.7505 76.7111 29.5326H76.6399C75.5627 28.8776 74.3407 28.5862 73.8389 27.4186C73.623 25.5249 74.126 23.9202 74.4843 22.1722C75.2055 20.9311 75.2055 19.1084 75.8509 17.6518ZM69.3863 21.5149C67.8773 24.0659 65.8663 26.3989 63.4247 27.7822C62.543 28.272 61.6005 28.6401 60.6226 28.8765C59.6177 29.0222 58.2511 28.6562 57.3173 28.1458C54.6621 26.47 55.5947 22.9728 56.6007 20.7131C57.9651 17.724 59.8325 15.0274 62.49 13.2048C62.707 13.0591 63.0653 12.8401 63.4247 12.6955C64.3585 12.2573 65.4357 11.8926 66.4418 11.8215C67.806 11.7481 69.5299 11.7481 70.3201 12.8412C72.1886 15.3921 70.8954 19.1084 69.3863 21.5149ZM8.97485 10.6538C9.98094 10.3625 10.771 10.5804 11.5611 9.77981C11.8482 9.34165 12.1353 8.90464 11.9206 8.39422C11.5611 7.73812 10.8434 7.9572 10.268 7.73812C9.98094 7.44678 9.62139 7.37336 9.26308 7.44678C8.40065 7.44678 7.97 8.10288 7.61045 8.75896C7.25102 9.19597 7.53812 9.77982 7.75412 10.1434C8.11355 10.4348 8.5442 10.6538 8.97485 10.6538ZM12.2789 21.8797C12.8543 23.045 13.4285 24.2104 14.8652 24.5775C15.3682 24.7231 16.0871 24.5775 16.5179 24.7231C17.3792 24.7231 18.1693 24.4318 18.887 24.1381C20.0366 23.6277 20.5396 22.5346 21.1138 21.5149C21.1863 19.183 20.8267 16.7765 19.8908 14.7373C20.0366 14.3724 19.6772 14.0077 19.6049 13.6441C19.3178 13.6441 19.5337 13.2059 19.3901 12.9869L18.1681 10.8741C17.1633 9.85324 16.5166 8.9058 15.2236 8.24971C14.9365 8.17629 14.5046 7.81269 14.2887 8.32313C14.7929 10.655 13.5709 12.5498 13.2126 14.6638C13.1403 14.6638 13.1403 14.6638 13.0691 14.5916C12.4225 16.85 12.0642 19.5466 12.2789 21.8797ZM3.87467 21.8797L4.5212 23.045C5.45484 24.2104 6.89158 24.7931 8.47186 24.722C9.26308 24.5017 9.98094 24.6474 10.6987 24.356C12.6384 23.7734 10.4116 22.2421 10.6987 21.4415C10.1245 20.1305 9.83728 18.3079 10.4839 16.9957C10.9146 14.8084 13.0691 12.8401 12.6372 10.6538C11.6323 10.7272 10.9146 11.6747 10.052 11.966C8.75897 12.8401 7.32223 13.4238 6.1727 14.5159C4.01698 16.2661 3.51512 19.2541 3.94588 21.8785L3.87467 21.8797ZM10.3404 26.2532C9.90849 27.4186 11.0581 28.295 11.7047 28.9498C12.9979 30.1152 12.6384 32.0835 12.8543 33.7593C12.9979 34.4165 12.8543 35.2183 13.2137 35.7276C14.0038 34.2709 13.285 32.4482 13.3573 30.7702C13.5008 28.7308 15.5841 28.6562 15.6553 26.689C14.4346 25.1602 11.7759 25.4492 10.3404 26.2532ZM22.9812 26.9082C20.3961 26.5446 17.8109 27.1996 16.2308 29.2412C15.5118 30.4788 15.1523 32.0089 15.4406 33.5402C16.805 34.3431 18.6011 33.6859 20.109 33.4691C21.401 32.8841 22.3347 31.7164 23.0548 30.6245C23.5567 29.6048 24.2755 28.7308 24.2032 27.4908C23.9884 26.9082 23.1983 27.3451 22.9812 26.9082ZM6.24504 27.0539C4.73709 27.1996 2.8697 26.4711 1.72014 27.4908C1.50423 29.2412 3.01213 30.6245 3.80345 32.1546C5.16774 34.0529 7.68166 33.7593 9.83728 33.7593C10.1245 33.687 10.5551 33.9073 10.771 33.4703C10.9146 32.1546 10.3404 30.9892 9.90849 29.8973C9.1184 28.5862 7.82521 27.4186 6.24504 27.0539Z" fill="#5E4C45"/>
<path fill-rule="evenodd" clip-rule="evenodd" d="M35.194 20.2754C34.281 8.33638 22.9114 -1.36518 10.986 0.157935C-0.802768 1.07623 -10.3601 12.6879 -8.84071 24.7947C-7.88751 36.7559 3.53835 46.3676 15.4396 44.8399C27.2043 43.8657 36.6812 32.3461 35.194 20.2754ZM33.3255 24.649C29.3002 51.6572 -8.49158 47.6507 -6.9722 20.4235C-3.02156 -6.66869 34.9195 -2.67736 33.3255 24.649Z" fill="#5E4C45"/>
</svg>
