<svg width="30" height="30" viewBox="0 0 30 30" fill="none" xmlns="http://www.w3.org/2000/svg">
<circle cx="15" cy="15" r="15" fill="#08080A"/>
<path fill-rule="evenodd" clip-rule="evenodd" d="M30 15C30 23.2842 23.2842 30 15 30C6.71572 30 0 23.2842 0 15C0 6.71572 6.71572 0 15 0C23.2842 0 30 6.71572 30 15ZM21.8587 11.0775C22.2435 11.3138 22.4933 11.739 22.4933 12.225L22.5 18.975C22.5 19.7175 21.8925 20.325 21.15 20.325H10.35C9.6075 20.325 9 19.7175 9 18.975V12.225C9 11.739 9.2565 11.3138 9.64125 11.0775L15.75 7.5L21.8587 11.0775ZM21.1433 12.2318V12.225L15.75 9.06602L10.35 12.225L15.75 15.6L21.1433 12.2318ZM10.35 18.975V13.8045L15.75 17.193L21.1433 13.8248L21.15 18.975H10.35Z" fill="white"/>
</svg>
