<svg width="30" height="30" viewBox="0 0 30 30" fill="none" xmlns="http://www.w3.org/2000/svg">
<circle cx="15" cy="15" r="15" fill="#08080A"/>
<path fill-rule="evenodd" clip-rule="evenodd" d="M30 15C30 23.2842 23.2842 30 15 30C6.71572 30 0 23.2842 0 15C0 6.71572 6.71572 0 15 0C23.2842 0 30 6.71572 30 15ZM9 18V20.3334C9 20.7 9.3 21 9.66666 21C15.9267 21 21 15.9267 21 9.66666C21 9.3 20.7 9 20.3334 9H18.0066C17.64 9 17.34 9.3 17.34 9.66666C17.34 10.4933 17.2066 11.3 16.96 12.0466C16.9333 12.1134 16.9266 12.1866 16.9266 12.2533C16.9266 12.4266 16.9933 12.5934 17.1199 12.7266L18.5867 14.1933C17.6201 16.08 16.08 17.6266 14.1933 18.5867L12.7266 17.1199C12.54 16.9333 12.2801 16.8799 12.0466 16.9533C11.3 17.2001 10.5 17.3334 9.66666 17.3334C9.3 17.3334 9 17.6334 9 18ZM12.06 18.34C11.5067 18.5 10.9267 18.6 10.3333 18.64V19.6467C11.2133 19.5867 12.06 19.4133 12.86 19.14L12.06 18.34ZM18.6467 10.3333C18.6066 10.92 18.5067 11.5 18.3466 12.0666L19.14 12.8667C19.4067 12.06 19.58 11.2133 19.6399 10.3333H18.6467Z" fill="white"/>
</svg>
