<svg width="59" height="53" viewBox="0 0 59 53" fill="none" xmlns="http://www.w3.org/2000/svg">
<path d="M24.745 0L28.1109 4.37037C20.4176 11.3306 15.6093 19.4239 13.6859 28.6502C16.8915 28.6502 19.2956 29.6214 20.8984 31.5638C22.5012 33.5062 23.3025 36.2579 23.3025 39.8189C23.3025 43.38 21.9402 46.3745 19.2155 48.8025C16.6511 51.2304 13.6859 52.4444 10.3201 52.4444C7.11457 52.4444 4.63027 51.5542 2.86723 49.7737C1.10418 47.8313 0.222656 45.3224 0.222656 42.2469C0.222656 27.8409 8.39679 13.7586 24.745 0ZM55.0374 0L58.4032 4.37037C50.2291 11.8162 45.4208 19.9095 43.9783 28.6502C47.0236 28.6502 49.3476 29.7023 50.9503 31.8066C52.7134 33.749 53.5949 36.5007 53.5949 40.0617C53.5949 43.4609 52.2325 46.3745 49.5078 48.8025C46.9434 51.2304 43.9783 52.4444 40.6125 52.4444C37.4069 52.4444 34.9226 51.5542 33.1596 49.7737C31.3965 47.8313 30.515 45.3224 30.515 42.2469C30.515 26.7078 38.6891 12.6255 55.0374 0Z" fill="#08080A"/>
</svg>
