<svg width="37" height="36" viewBox="0 0 37 36" fill="none" xmlns="http://www.w3.org/2000/svg">
<circle cx="18.2227" cy="18" r="18" fill="white"/>
<path d="M22.6984 10.5551C21.9836 9.73566 21.554 8.66715 21.554 7.49902H20.6582C20.8889 8.77581 21.6489 9.8715 22.6984 10.5551Z" fill="#08080A"/>
<path d="M14.4105 17.158C12.8588 17.158 11.5967 18.4212 11.5967 19.9741C11.5967 21.0563 12.2119 21.998 13.1076 22.4688C12.7729 22.007 12.5738 21.4411 12.5738 20.8253C12.5738 19.2724 13.836 18.0092 15.3877 18.0092C15.6772 18.0092 15.9576 18.0589 16.22 18.1404V14.7176C15.9486 14.6814 15.6726 14.6587 15.3877 14.6587C15.3379 14.6587 15.2926 14.6632 15.2429 14.6632V17.2892C14.976 17.2077 14.7 17.158 14.4105 17.158Z" fill="#08080A"/>
<path d="M25.2355 12.0586V14.662C23.4984 14.662 21.888 14.1051 20.576 13.1633V19.9774C20.576 23.3776 17.812 26.1486 14.41 26.1486C13.0981 26.1486 11.8767 25.732 10.877 25.0302C12.0034 26.239 13.6093 26.9997 15.3872 26.9997C18.7846 26.9997 21.5531 24.2333 21.5531 20.8285V14.0145C22.865 14.9563 24.4755 15.5131 26.2127 15.5131V12.1628C25.8734 12.1628 25.5476 12.1265 25.2355 12.0586Z" fill="#08080A"/>
<path d="M20.5774 19.9771V13.163C21.8893 14.1048 23.4998 14.6617 25.2369 14.6617V12.0583C24.2326 11.8456 23.3506 11.3022 22.6992 10.5551C21.6497 9.8715 20.894 8.77581 20.6543 7.49902H18.2024L18.1978 20.9324C18.1436 22.4356 16.9041 23.6445 15.3886 23.6445C14.4476 23.6445 13.6198 23.1781 13.1041 22.4718C12.2084 21.9964 11.5931 21.0592 11.5931 19.9771C11.5931 18.4241 12.8553 17.1609 14.4069 17.1609C14.6964 17.1609 14.9769 17.2107 15.2393 17.2922V14.6662C11.9098 14.7386 9.22266 17.4733 9.22266 20.8282C9.22266 22.4491 9.85147 23.9252 10.8784 25.0299C11.8781 25.7317 13.0995 26.1483 14.4114 26.1483C17.8088 26.1483 20.5774 23.3773 20.5774 19.9771Z" fill="#08080A"/>
</svg>
