<svg width="37" height="36" viewBox="0 0 37 36" fill="none" xmlns="http://www.w3.org/2000/svg">
<path d="M15.8242 21.4661L21.7164 18.0067L15.8242 14.5474V21.4661Z" fill="white"/>
<path d="M18.2227 0C8.28047 0 0.222656 8.05781 0.222656 18C0.222656 27.9422 8.28047 36 18.2227 36C28.1648 36 36.2227 27.9422 36.2227 18C36.2227 8.05781 28.1648 0 18.2227 0ZM27.2227 21.2203C27.2227 24.3211 24.1219 24.3211 24.1219 24.3211H12.3234C9.22266 24.3211 9.22266 21.2203 9.22266 21.2203V14.7867C9.22266 11.6859 12.3234 11.6859 12.3234 11.6859H24.1219C27.2227 11.6859 27.2227 14.7867 27.2227 14.7867V21.2203Z" fill="white"/>
</svg>
